<svg id="Layer_1" data-name="Layer 1" xmlns="http://www.w3.org/2000/svg" viewBox="0 0 179.87 30.88"><defs><style>.cls-1{fill:none;stroke:#000;stroke-miterlimit:10;}</style></defs><path d="M33.49,29a.69.69,0,0,0-.06.26.82.82,0,0,0,.35.58,3.61,3.61,0,0,0,.92.55,6.3,6.3,0,0,0,1.29.41,6.53,6.53,0,0,0,1.46.16,5.07,5.07,0,0,0,2.75-.56A1.66,1.66,0,0,0,41.05,29a1.14,1.14,0,0,0-.21-.7,1.36,1.36,0,0,0-.58-.43,3.28,3.28,0,0,0-.86-.21,8.5,8.5,0,0,0-1-.06h-2a6.69,6.69,0,0,1-1.89-.26,3.12,3.12,0,0,1-1.42-.83,2.39,2.39,0,0,1-.56-1.72,2.35,2.35,0,0,1,.4-1.31,3.54,3.54,0,0,1,1.09-1,6,6,0,0,1,1.63-.66,8.27,8.27,0,0,1,2-.24,8,8,0,0,1,1.49.12,11.08,11.08,0,0,1,1.09.26c.31.1.56.18.76.26a1.42,1.42,0,0,0,.5.12.46.46,0,0,0,.32-.08,1.12,1.12,0,0,0,.2-.18l.24.1-1.1,2.3L41,24.3A.76.76,0,0,0,41,24c0-.09-.08-.2-.24-.34a2.91,2.91,0,0,0-.68-.39A6.29,6.29,0,0,0,39,23a6.82,6.82,0,0,0-1.33-.13,5.47,5.47,0,0,0-2.57.52,1.55,1.55,0,0,0-.95,1.36.85.85,0,0,0,.21.61,1.31,1.31,0,0,0,.58.36,3.12,3.12,0,0,0,.86.17c.33,0,.68,0,1,0l2,0a6.91,6.91,0,0,1,1.88.31,3.21,3.21,0,0,1,1.42.9A2.61,2.61,0,0,1,42.69,29a2.47,2.47,0,0,1-.33,1.23,3.07,3.07,0,0,1-1,1.05,5,5,0,0,1-1.63.72,8.38,8.38,0,0,1-2.25.26,8.58,8.58,0,0,1-1.87-.17,7.52,7.52,0,0,1-1.35-.4,9.45,9.45,0,0,1-.92-.42,1.43,1.43,0,0,0-.58-.19.62.62,0,0,0-.42.24l-.2-.12,1.08-2.3Z" transform="translate(-23.45 -12.9)"/><path d="M44.47,31.94c.22,0,.36,0,.43-.14a1.22,1.22,0,0,0,.21-.36l3.16-7.24a1,1,0,0,0,.1-.34.23.23,0,0,0-.11-.18.89.89,0,0,0-.39-.1v-.2h3.24v.24a1.12,1.12,0,0,0-.31.05.2.2,0,0,0-.15.19.46.46,0,0,0,.05.2,1.13,1.13,0,0,1,.09.2l3.42,7.28a.8.8,0,0,0,.18.27.58.58,0,0,0,.44.13v.24H52.31v-.24a1.25,1.25,0,0,0,.48-.06.19.19,0,0,0,.12-.18.61.61,0,0,0,0-.24c0-.06,0-.13-.08-.2L52,29.58H47.11l-.68,1.52a2.69,2.69,0,0,1-.17.34.61.61,0,0,0-.09.26.19.19,0,0,0,.12.18,1,1,0,0,0,.42.06v.24H44.47Zm3.1-3.48h3.9l-2-4.2Z" transform="translate(-23.45 -12.9)"/><path d="M58.83,31.38a.75.75,0,0,0,.09.45c.06.08.2.11.41.11v.24H57.09v-.24c.22,0,.35,0,.41-.11a.75.75,0,0,0,.09-.45v-7.2a.8.8,0,0,0-.09-.45.54.54,0,0,0-.41-.11v-.24h6.12a2.48,2.48,0,0,1,1.92.66,2.58,2.58,0,0,1,.6,1.8,2.27,2.27,0,0,1-.63,1.75,2.58,2.58,0,0,1-1.79.63l2.2,3.36a1.15,1.15,0,0,0,.24.29.44.44,0,0,0,.26.07v.24H63.85v-.24a.67.67,0,0,0,.27,0s0-.06,0-.13a.41.41,0,0,0-.06-.2c0-.06-.09-.16-.16-.28l-2-3.08H58.83Zm4.26-4.28a1.33,1.33,0,0,0,1-.32,1.39,1.39,0,0,0,.3-1,1.48,1.48,0,0,0-.31-1.05,1.65,1.65,0,0,0-1.21-.33H58.83V27.1Z" transform="translate(-23.45 -12.9)"/><path d="M67.81,31.94c.22,0,.36,0,.43-.14a1.22,1.22,0,0,0,.21-.36l3.16-7.24a1,1,0,0,0,.1-.34.23.23,0,0,0-.11-.18.89.89,0,0,0-.39-.1v-.2h3.24v.24a1.12,1.12,0,0,0-.31.05.2.2,0,0,0-.15.19.46.46,0,0,0,.05.2,1.13,1.13,0,0,1,.09.2l3.42,7.28a.8.8,0,0,0,.18.27.58.58,0,0,0,.44.13v.24H75.65v-.24a1.25,1.25,0,0,0,.48-.06.19.19,0,0,0,.12-.18.61.61,0,0,0,0-.24c0-.06,0-.13-.08-.2l-.82-1.68H70.45l-.68,1.52a2.69,2.69,0,0,1-.17.34.61.61,0,0,0-.09.26.19.19,0,0,0,.12.18,1,1,0,0,0,.42.06v.24H67.81Zm3.1-3.48h3.9l-2-4.2Z" transform="translate(-23.45 -12.9)"/><path d="M89.49,31.38a.75.75,0,0,0,.09.45c.06.08.2.11.41.11v.24H87.75v-.24c.22,0,.35,0,.41-.11a.75.75,0,0,0,.09-.45V28.06h-6v3.32a.75.75,0,0,0,.09.45c.06.08.2.11.41.11v.24H80.47v-.24c.22,0,.35,0,.41-.11a.75.75,0,0,0,.09-.45v-7.2a.8.8,0,0,0-.09-.45.54.54,0,0,0-.41-.11v-.24h2.24v.24a.56.56,0,0,0-.41.11.8.8,0,0,0-.09.45v2.76h6V24.18a.8.8,0,0,0-.09-.45.54.54,0,0,0-.41-.11v-.24H90v.24a.56.56,0,0,0-.41.11.8.8,0,0,0-.09.45Z" transform="translate(-23.45 -12.9)"/><path d="M107.16,22.66a.54.54,0,0,0-.1-.35.45.45,0,0,0-.38-.13v-.24h6.2a6,6,0,0,1,2.23.39,4.72,4.72,0,0,1,2.75,2.76,5.82,5.82,0,0,1,.38,2.11,6.76,6.76,0,0,1-.32,2.11A4.58,4.58,0,0,1,117,31a4.26,4.26,0,0,1-1.56,1.09,5.53,5.53,0,0,1-2.15.39h-6.58v-.24a.45.45,0,0,0,.38-.13.54.54,0,0,0,.1-.35Zm5.92,8.48a3.33,3.33,0,0,0,2.64-1,4.32,4.32,0,0,0,.88-2.94,4,4,0,0,0-1-2.94,3.89,3.89,0,0,0-2.87-1h-3.88v7.88Z" transform="translate(-23.45 -12.9)"/><path d="M119.82,32.22a.54.54,0,0,0,.43-.14,1.9,1.9,0,0,0,.21-.36l3.16-7.24a1,1,0,0,0,.1-.34.22.22,0,0,0-.11-.18.89.89,0,0,0-.39-.1v-.2h3.24v.24a1.06,1.06,0,0,0-.31.05.19.19,0,0,0-.15.19.49.49,0,0,0,0,.2l.09.2,3.42,7.28a.91.91,0,0,0,.18.27.58.58,0,0,0,.44.13v.24h-2.52v-.24a1.25,1.25,0,0,0,.48-.06.19.19,0,0,0,.12-.18.61.61,0,0,0,0-.24l-.08-.2-.82-1.68h-4.86l-.68,1.52a3.59,3.59,0,0,1-.17.34.61.61,0,0,0-.09.26.19.19,0,0,0,.12.18,1,1,0,0,0,.42.06v.24h-2.24Zm3.1-3.48h3.9l-2-4.2Z" transform="translate(-23.45 -12.9)"/><path d="M133.28,23.66v.24A.56.56,0,0,0,133,24a.3.3,0,0,0-.14.28.52.52,0,0,0,.08.24,2.09,2.09,0,0,1,.14.3l2.84,6.06,2.6-6.22c0-.07.05-.14.08-.22a.58.58,0,0,0,0-.2c0-.2-.15-.3-.44-.3v-.24h2v.24a.45.45,0,0,0-.4.32l-3.06,7.26-.1.24a.6.6,0,0,0-.06.24c0,.19.15.27.44.26v.24H134.7v-.24q.36,0,.36-.18a.94.94,0,0,0-.08-.31c0-.13-.13-.29-.22-.49l-3.24-6.94a.91.91,0,0,0-.23-.3.58.58,0,0,0-.37-.1v-.24Z" transform="translate(-23.45 -12.9)"/><path d="M142.76,32.22a.56.56,0,0,0,.41-.11.75.75,0,0,0,.09-.45v-7.2a.75.75,0,0,0-.09-.45.56.56,0,0,0-.41-.11v-.24H145v.24a.56.56,0,0,0-.41.11.75.75,0,0,0-.09.45v7.2a.75.75,0,0,0,.09.45.56.56,0,0,0,.41.11v.24h-2.24Z" transform="translate(-23.45 -12.9)"/><path d="M149.48,24.46a.75.75,0,0,0-.09-.45.56.56,0,0,0-.41-.11v-.24h4.84a5.45,5.45,0,0,1,2,.34,3.94,3.94,0,0,1,1.41.93,3.59,3.59,0,0,1,.81,1.39,5.67,5.67,0,0,1,.26,1.74,5.75,5.75,0,0,1-.26,1.73,3.56,3.56,0,0,1-.81,1.4,3.94,3.94,0,0,1-1.41.93,5.45,5.45,0,0,1-2,.34H149v-.24a.56.56,0,0,0,.41-.11.75.75,0,0,0,.09-.45Zm4.1,6.88a4.34,4.34,0,0,0,1.59-.26,2.79,2.79,0,0,0,1.06-.71,2.92,2.92,0,0,0,.6-1,4.34,4.34,0,0,0,0-2.54,2.92,2.92,0,0,0-.6-1,2.79,2.79,0,0,0-1.06-.71,4.34,4.34,0,0,0-1.59-.26h-2.86v6.56Z" transform="translate(-23.45 -12.9)"/><path d="M161.54,30a1.35,1.35,0,0,0,0,.26c0,.11.1.23.31.37a3.7,3.7,0,0,0,.82.39,8.69,8.69,0,0,0,1.18.31,7,7,0,0,0,1.39.13,5,5,0,0,0,2.15-.37,1.16,1.16,0,0,0,.77-1.05.92.92,0,0,0-.53-.9,4.39,4.39,0,0,0-1.33-.37c-.53-.07-1.11-.13-1.73-.16a9.12,9.12,0,0,1-1.73-.25,3.09,3.09,0,0,1-1.33-.66,1.75,1.75,0,0,1-.53-1.38,2.47,2.47,0,0,1,.31-1.29,2.53,2.53,0,0,1,.83-.86,3.74,3.74,0,0,1,1.21-.48,6.74,6.74,0,0,1,1.43-.15,8,8,0,0,1,1.38.11,8.22,8.22,0,0,1,1,.25c.29.09.52.18.69.25a1.19,1.19,0,0,0,.38.11.25.25,0,0,0,.16-.05.93.93,0,0,0,.16-.23l.26.1L168,26l-.24-.1,0-.09a.58.58,0,0,0,0-.15c0-.11-.09-.22-.27-.34a3.48,3.48,0,0,0-.72-.34,7.55,7.55,0,0,0-1-.26,6.45,6.45,0,0,0-1.17-.1,5.29,5.29,0,0,0-1.26.13,2.19,2.19,0,0,0-.75.34,1.12,1.12,0,0,0-.37.48,1.49,1.49,0,0,0-.1.55.86.86,0,0,0,.53.83,4.42,4.42,0,0,0,1.33.35c.53.07,1.11.12,1.73.15a9.12,9.12,0,0,1,1.73.25,3.31,3.31,0,0,1,1.33.65,1.68,1.68,0,0,1,.53,1.35,2.33,2.33,0,0,1-1,2.11,6.29,6.29,0,0,1-3.33.67,8.81,8.81,0,0,1-1.42-.11,8.66,8.66,0,0,1-1.13-.26c-.33-.1-.6-.19-.83-.28a1.51,1.51,0,0,0-.5-.13.27.27,0,0,0-.24.1,1.06,1.06,0,0,0-.12.2l-.24-.08.78-2Z" transform="translate(-23.45 -12.9)"/><path d="M172.9,24.46a.75.75,0,0,0-.09-.45.48.48,0,0,0-.37-.11v-.24h8.06a.52.52,0,0,0,.4-.11.53.53,0,0,0,.1-.37h.24v2.08H181a.53.53,0,0,0-.1-.37.56.56,0,0,0-.4-.11h-6.28v2.6h4.42a.56.56,0,0,0,.4-.11.53.53,0,0,0,.1-.37h.24V29h-.24a.53.53,0,0,0-.1-.37.56.56,0,0,0-.4-.11h-4.42v2.84h6.5a.56.56,0,0,0,.4-.11.53.53,0,0,0,.1-.37h.24v2h-.24c0-.17,0-.29-.1-.34a.72.72,0,0,0-.4-.08h-8.28v-.24a.48.48,0,0,0,.37-.11.75.75,0,0,0,.09-.45Z" transform="translate(-23.45 -12.9)"/><path d="M184.62,32.22a.64.64,0,0,0,.43-.11.66.66,0,0,0,.11-.45v-7.2a.66.66,0,0,0-.11-.45.64.64,0,0,0-.43-.11v-.24h2.92v.24a1.29,1.29,0,0,0-.43.05.16.16,0,0,0-.11.13,1.06,1.06,0,0,0,.22.34l5.42,6.22V24.46a.66.66,0,0,0-.11-.45.64.64,0,0,0-.43-.11v-.24h2.2v.24a.64.64,0,0,0-.43.11.66.66,0,0,0-.11.45v7.2a.66.66,0,0,0,.11.45.64.64,0,0,0,.43.11v.24h-2.68v-.24a1.43,1.43,0,0,0,.48,0,.15.15,0,0,0,.08-.14.22.22,0,0,0-.07-.17l-.17-.19-5.66-6.46v6.44a.66.66,0,0,0,.11.45.64.64,0,0,0,.43.11v.24h-2.2Z" transform="translate(-23.45 -12.9)"/><line class="cls-1" x1="0.5" y1="30.38" x2="179.37" y2="30.38"/><line class="cls-1" x1="0.5" y1="0.5" x2="179.37" y2="0.5"/><line class="cls-1" x1="179.37" y1="0.5" x2="179.37" y2="30.38"/><line class="cls-1" x1="0.5" y1="0.77" x2="0.5" y2="30.38"/><circle cx="74.76" cy="14.8" r="1.32"/></svg>