<svg id="Layer_1" data-name="Layer 1" xmlns="http://www.w3.org/2000/svg" xmlns:xlink="http://www.w3.org/1999/xlink" viewBox="0 0 521.88 244.83"><defs><style>.cls-1,.cls-2{fill:none;}.cls-2{stroke:#1d1d1b;}.cls-3{clip-path:url(#clip-path);}.cls-4,.cls-5,.cls-9{fill:#1d1d1b;}.cls-5{font-size:12px;font-family:PlayfairDisplay-Regular, Playfair Display;}.cls-6{letter-spacing:-0.02em;}.cls-7{letter-spacing:-0.01em;}.cls-8{letter-spacing:0em;}.cls-9{font-size:9px;font-family:Raleway-Regular, Raleway;}.cls-10{letter-spacing:-0.01em;}.cls-11{letter-spacing:-0.03em;}.cls-12{letter-spacing:-0.03em;}.cls-13{letter-spacing:0em;}.cls-14{letter-spacing:-0.01em;}.cls-15{letter-spacing:-0.01em;}.cls-16{letter-spacing:-0.01em;}.cls-17{letter-spacing:0em;}.cls-18{letter-spacing:-0.01em;}.cls-19{letter-spacing:0em;}.cls-20{letter-spacing:-0.02em;}.cls-21{letter-spacing:-0.01em;}.cls-22{letter-spacing:-0.08em;}.cls-23{letter-spacing:-0.02em;}.cls-24{letter-spacing:-0.03em;}.cls-25{letter-spacing:0em;}.cls-26{letter-spacing:0em;}.cls-27{letter-spacing:-0.03em;}.cls-28{letter-spacing:-0.05em;}.cls-29{letter-spacing:-0.02em;}.cls-30{letter-spacing:-0.01em;}.cls-31{letter-spacing:-0.04em;}.cls-32{letter-spacing:-0.03em;}.cls-33{letter-spacing:0em;}.cls-34{letter-spacing:-0.01em;}.cls-35{letter-spacing:0em;}.cls-36{letter-spacing:-0.01em;}.cls-37{letter-spacing:-0.02em;}.cls-38{letter-spacing:-0.06em;}.cls-39{letter-spacing:-0.02em;}.cls-40{letter-spacing:-0.01em;}</style><clipPath id="clip-path"><rect class="cls-1" x="29.71" y="23.54" width="462.41" height="195.95"/></clipPath></defs><line class="cls-2" x1="100.32" y1="118.8" x2="149.28" y2="118.8"/><line class="cls-2" x1="168.36" y1="118.94" x2="217.32" y2="118.94"/><g class="cls-3"><path class="cls-4" d="M159.16,122.4a3.25,3.25,0,1,0-3.06-3.24,3.15,3.15,0,0,0,3.06,3.24"/><ellipse class="cls-2" cx="159.16" cy="119.16" rx="3.06" ry="3.24"/><path class="cls-4" d="M91,122.4A3.25,3.25,0,1,0,88,119.16,3.15,3.15,0,0,0,91,122.4"/><ellipse class="cls-2" cx="91.01" cy="119.16" rx="3.06" ry="3.24"/></g><line class="cls-2" x1="234.61" y1="118.8" x2="283.57" y2="118.8"/><line class="cls-2" x1="302.65" y1="118.94" x2="351.61" y2="118.94"/><g class="cls-3"><path class="cls-4" d="M293.45,122.4a3.25,3.25,0,1,0-3.06-3.24,3.15,3.15,0,0,0,3.06,3.24"/><ellipse class="cls-2" cx="293.45" cy="119.16" rx="3.06" ry="3.24"/><path class="cls-4" d="M225.3,122.4a3.25,3.25,0,1,0-3.06-3.24,3.15,3.15,0,0,0,3.06,3.24"/><ellipse class="cls-2" cx="225.3" cy="119.16" rx="3.06" ry="3.24"/></g><line class="cls-2" x1="371.77" y1="118.8" x2="420.73" y2="118.8"/><g class="cls-3"><ellipse class="cls-2" cx="430.61" cy="119.16" rx="3.06" ry="3.24"/><path class="cls-4" d="M362.46,122.4a3.25,3.25,0,1,0-3.06-3.24,3.15,3.15,0,0,0,3.06,3.24"/><ellipse class="cls-2" cx="362.46" cy="119.16" rx="3.06" ry="3.24"/></g><text class="cls-5" transform="translate(65.14 143.81)">20<tspan class="cls-6" x="12.95" y="0">1</tspan><tspan x="17.2" y="0">3-2016</tspan></text><text class="cls-5" transform="translate(134.62 106.8)">2016-2017</text><text class="cls-5" transform="translate(197.97 144.91)">201<tspan class="cls-7" x="17.39" y="0">7</tspan><tspan class="cls-8" x="22.13" y="0">-2020</tspan></text><text class="cls-5" transform="translate(336.94 144.24)">2020-2021</text><text class="cls-5" transform="translate(266.37 107.89)">2018-2020</text><text class="cls-5" transform="translate(404.98 108.96)">2020-2022</text><line class="cls-2" x1="90.93" y1="110.29" x2="90.93" y2="61.33"/><line class="cls-2" x1="158.97" y1="176.96" x2="158.97" y2="128"/><line class="cls-2" x1="225.37" y1="110.74" x2="225.37" y2="61.78"/><line class="cls-2" x1="362.37" y1="111.08" x2="362.37" y2="62.12"/><line class="cls-2" x1="293.61" y1="176.24" x2="293.61" y2="127.28"/><line class="cls-2" x1="430.41" y1="177.68" x2="430.41" y2="128.72"/><g class="cls-3"><text class="cls-9" transform="translate(29.71 32.02)">El<tspan class="cls-10" x="7.93" y="0">e</tspan><tspan class="cls-11" x="13.09" y="0">v</tspan><tspan x="17.66" y="0" xml:space="preserve"> på Bir</tspan><tspan class="cls-12" x="43.82" y="0">k</tspan><tspan x="48.35" y="0">e</tspan><tspan class="cls-11" x="53.63" y="0">r</tspan><tspan class="cls-13" x="56.56" y="0">ød </tspan><tspan class="cls-14" x="69.8" y="0">G</tspan><tspan x="76.18" y="0">ymnasium, </tspan></text><text class="cls-9" transform="translate(29.71 42.82)">bi<tspan class="cls-15" x="7.51" y="0">o</tspan><tspan class="cls-16" x="12.82" y="0">t</tspan><tspan x="15.72" y="0">eknologisk og m</tspan><tspan class="cls-17" x="84.63" y="0">a</tspan><tspan class="cls-18" x="89.5" y="0">t</tspan><tspan class="cls-19" x="92.41" y="0">ema</tspan></text></g><text class="cls-9" transform="translate(140.56 42.82)">-</text><g class="cls-3"><text class="cls-9" transform="translate(29.71 53.62)">tisk linje</text></g><text class="cls-9" transform="translate(97.92 190.79)">Læ<tspan class="cls-11" x="13.63" y="0">r</tspan><tspan x="16.56" y="0">ervi</tspan><tspan class="cls-15" x="31.76" y="0">k</tspan><tspan x="36.48" y="0">a</tspan><tspan class="cls-20" x="41.38" y="0">r</tspan><tspan class="cls-13" x="44.32" y="0" xml:space="preserve"> på So</tspan><tspan class="cls-21" x="70.19" y="0">l</tspan><tspan class="cls-16" x="72.54" y="0">v</tspan><tspan x="77.23" y="0">angs</tspan><tspan class="cls-12" x="97.32" y="0">k</tspan><tspan x="101.85" y="0">olen, </tspan></text><text class="cls-9" transform="translate(97.92 201.59)"><tspan class="cls-22">F</tspan><tspan x="4.54" y="0">arum</tspan></text><g class="cls-3"><text class="cls-9" transform="translate(167.59 32)">Daglig lede<tspan class="cls-23" x="47.78" y="0">r</tspan><tspan x="50.72" y="0" xml:space="preserve"> hos </tspan><tspan class="cls-24" x="70.3" y="0">r</tspan><tspan x="73.23" y="0">estau</tspan><tspan class="cls-14" x="96.16" y="0">r</tspan><tspan x="99.26" y="0">a</tspan><tspan class="cls-25" x="104.16" y="0">n</tspan><tspan class="cls-13" x="109.37" y="0">t </tspan></text></g><text class="cls-9" transform="translate(167.59 42.8)"><tspan class="cls-26">H</tspan><tspan x="6.61" y="0">ali</tspan><tspan class="cls-14" x="15.92" y="0">f</tspan><tspan x="18.83" y="0">ax,</tspan><tspan class="cls-27" x="30.29" y="0"> </tspan><tspan class="cls-28" x="32.29" y="0">V</tspan><tspan class="cls-19" x="37.95" y="0">al</tspan><tspan class="cls-29" x="45.31" y="0">b</tspan><tspan x="50.71" y="0">y</tspan></text><text class="cls-9" transform="translate(237.94 190.39)">Multimediedesign på KEA</text><g class="cls-3"><text class="cls-9" transform="translate(301.3 32.31)"><tspan class="cls-25">S</tspan><tspan x="5.42" y="0">tude</tspan><tspan class="cls-17" x="24.66" y="0">n</tspan><tspan class="cls-18" x="29.87" y="0">t</tspan><tspan x="32.78" y="0">ermedhjælpe</tspan><tspan class="cls-20" x="89.31" y="0">r</tspan><tspan x="92.26" y="0" xml:space="preserve"> hos </tspan></text></g><text class="cls-9" transform="translate(301.3 43.11)">Alm B<tspan class="cls-30" x="25.09" y="0">r</tspan><tspan x="28.19" y="0">and, </tspan><tspan class="cls-31" x="48.26" y="0">F</tspan><tspan class="cls-32" x="53.21" y="0">r</tspan><tspan class="cls-33" x="56.14" y="0">o</tspan><tspan class="cls-26" x="61.5" y="0">n</tspan><tspan class="cls-34" x="66.71" y="0">t</tspan><tspan class="cls-35" x="69.61" y="0">end </tspan></text><text class="cls-9" transform="translate(301.3 53.91)">d<tspan class="cls-36" x="5.6" y="0">e</tspan><tspan class="cls-29" x="10.76" y="0">v</tspan><tspan class="cls-19" x="15.41" y="0">eloper</tspan></text><text class="cls-9" transform="translate(369.72 190.35)">P<tspan class="cls-37" x="5.6" y="0">r</tspan><tspan class="cls-30" x="8.53" y="0">o</tspan><tspan class="cls-32" x="13.82" y="0">f</tspan><tspan x="16.57" y="0">essions Bachelo</tspan><tspan class="cls-20" x="84.03" y="0">r</tspan><tspan x="86.97" y="0" xml:space="preserve"> i</tspan><tspan class="cls-27" x="91.23" y="0"> </tspan><tspan class="cls-38" x="93.23" y="0">W</tspan><tspan x="102.08" y="0">eb </tspan></text><text class="cls-9" transform="translate(369.72 201.15)">D<tspan class="cls-36" x="6.43" y="0">e</tspan><tspan class="cls-39" x="11.6" y="0">v</tspan><tspan class="cls-35" x="16.25" y="0">elopme</tspan><tspan class="cls-40" x="48.44" y="0">n</tspan><tspan class="cls-33" x="53.64" y="0">t, KEA</tspan></text></svg>